# xmcd
#
# Track frame offsets: 
#        150
#        13529
#        30807
#        59227
#        76477
#        89096
#        99899
#        112733
#        124600
#        140139
#        156874
#        171517
#        188093
#        205244
#        218314
#        230535
#        248052
#        266492
#        281655
#        296996
#        312867
#
# Disc length: 4518 seconds
#
# Revision: 3
# Processed by: cddbd v1.5.2PL0 Copyright (c) Steve Scherf et al.
# Submitted via: ExactAudioCopy v0.95b4
#
DISCID=2a11a415
DTITLE=Bobby Womack - Anthology Disc 2
DYEAR=2003
DGENRE=R&B
TTITLE0=Nobody Wants You When You're Down And Out
TTITLE1=Across 110th Street - Bobby Womack and Peace  from the film Ac
TTITLE1=ross 110th Street
TTITLE2=Fact Of Life - He'll Be There When The Sun Goes Down
TTITLE3=I'm Through Trying To Prove My Love To You
TTITLE4=If You Can't Give Her Love, Give Her Up
TTITLE5=Holdin' On To My Baby's Love
TTITLE6=That's Heaven To Me
TTITLE7=Lookin' For A Love
TTITLE8=I Don't Wanna Be Hurt By Ya Again
TTITLE9=You're Welcome, Stop On By
TTITLE10=Interlude #1/I Don't Know
TTITLE11=(If You Want My Love) Put Something Down On It
TTITLE12=Check It Out
TTITLE13=It's All Over Now - Bobby Womack and Bill Withers
TTITLE14=Tarnished Rings - Bobby Womack with Friendly Womack Sr.
TTITLE15=Trust In Me
TTITLE16=Everything's Gonna Be Alright
TTITLE17=Where There's A Will, There's A Way
TTITLE18=Love Ain't Something You Can Get For Free
TTITLE19=Daylight
TTITLE20=Jealous Love
EXTD=
EXTT0=
EXTT1=
EXTT2=
EXTT3=
EXTT4=
EXTT5=
EXTT6=
EXTT7=
EXTT8=
EXTT9=
EXTT10=
EXTT11=
EXTT12=
EXTT13=
EXTT14=
EXTT15=
EXTT16=
EXTT17=
EXTT18=
EXTT19=
EXTT20=
PLAYORDER=
